<svg height="32" viewBox="0 0 32 32" width="32" xmlns="http://www.w3.org/2000/svg">
    <path fill="#FFF" d="m15.994 7.556.569-.981c.35-.613 1.131-.819 1.744-.469s.819 1.131.469 1.744l-5.469 9.469h3.956c1.281 0 2 1.506 1.444
     2.55h-11.594c-.706 0-1.275-.569-1.275-1.275s.569-1.275 1.275-1.275h3.25l4.162-7.213-1.3-2.256c-.35-.613-.144-1.388.469-1.744.612-.35
      1.387-.144 1.744.469zm-4.919 13.625-1.225 2.125c-.35.613-1.131.819-1.744.469s-.819-1.131-.469-1.744l.913-1.575c1.025-.319 1.863-.075
       2.525.725zm10.556-3.856h3.319c.706 0 1.275.569 1.275 1.275s-.569 1.275-1.275 1.275h-1.844l1.244 2.156c.35.613.143 1.387-.469 
       1.744-.613.35-1.388.144-1.744-.469-2.094-3.631-3.669-6.35-4.712-8.162-1.069-1.844-.306-3.694.45-4.319.837 1.438 2.087 3.606 3.756 
       6.5zm-5.631-16.825c-8.563 0-15.5 6.938-15.5 15.5s6.938 15.5 15.5 15.5c8.563 0 15.5-6.938 15.5-15.5s-6.938-15.5-15.5-15.5zm13.5 15.5c0 
       7.419-6.006 13.5-13.5 13.5-7.419 0-13.5-6.006-13.5-13.5 0-7.419 6.006-13.5 13.5-13.5 7.419 0 13.5 6.006 13.5 13.5z"/></svg>
       