<?xml version="1.0" encoding="utf-8"?>
<!-- Generator: Adobe Illustrator 19.0.0, SVG Export Plug-In . SVG Version: 6.00 Build 0)  -->
<svg height="32" version="1.1" id="Layer_1" xmlns="http://www.w3.org/2000/svg" xmlns:xlink="http://www.w3.org/1999/xlink" x="0px" y="0px"
	 viewBox="0 0 512 512" style="enable-background:new 0 0 512 512;" xml:space="preserve">
<g id="XMLID_1_">
	<path fill="#FFF" id="XMLID_8_" d="M256,0C114.5,0,0,114.5,0,256s114.5,256,256,256s256-114.5,256-256S397.5,0,256,0z M182.5,107.1l161,86.6
		L294.2,243L156.4,105.2C164.8,102.4,174.1,102.4,182.5,107.1z M135.9,371.4V135c0-8.4,2.8-15.8,8.4-20.5l139.6,139.6L144.3,393.8
		C139.6,387.3,135.9,379.8,135.9,371.4z M182.5,399.4c-8.4,4.7-17.7,4.7-25.1,1.9l137.8-137.8l49.3,49.3L182.5,399.4z M403.1,280.2
		l-46.5,25.1l-52.1-52.1l52.1-52.1l46.5,25.1C425.4,237.4,425.4,269,403.1,280.2z"/>
</g>
</svg>
